<svg xmlns="http://www.w3.org/2000/svg" xmlns:xlink="http://www.w3.org/1999/xlink" version="1.1" id="Layer_1" x="0px" y="0px" width="100px" height="100px" viewBox="0 0 100 100" enable-background="new 0 0 100 100" xml:space="preserve">
<g>
	<path d="M55.751,42.177c0.058,0.083,0.101,0.18,0.101,0.289c0,0.282-0.229,0.511-0.512,0.511c-0.281,0-0.511-0.229-0.511-0.511   c0-0.033,0.013-0.064,0.018-0.095c-0.166,0.159-0.269,0.383-0.269,0.633c0,0.487,0.396,0.884,0.885,0.884   c0.486,0,0.883-0.396,0.883-0.884C56.346,42.617,56.096,42.296,55.751,42.177z"/>
</g>
<g>
	<path d="M29.861,56.177c0.058,0.083,0.101,0.179,0.101,0.288c0,0.282-0.229,0.512-0.511,0.512s-0.512-0.229-0.512-0.512   c0-0.032,0.014-0.064,0.019-0.096c-0.166,0.16-0.271,0.384-0.271,0.633c0,0.488,0.396,0.886,0.886,0.886   c0.486,0,0.882-0.397,0.882-0.886C30.456,56.617,30.206,56.295,29.861,56.177z"/>
</g>
<path fill="none" d="M45.563,47.005c-0.137,0-0.264,0.455-0.109,0.838c0.235,0.578,0.636,0.684,0.755,0.671  c0.397-0.04,0.795-0.514,0.54-0.923C46.51,47.208,46.031,47.005,45.563,47.005z"/>
<path fill="none" d="M47.598,48.667c0.061,0.159,0.124,0.318,0.186,0.478c0.841,0.649,1.909,1.144,2.894,1.31  c0.154-0.588,0.374-1.146,0.649-1.661c-0.891-0.189-2.321-0.549-3.843-1.169C47.573,47.89,47.622,48.223,47.598,48.667z"/>
<circle fill="none" cx="55.409" cy="43.007" r="1.265"/>
<path fill="none" d="M51.982,57.194c-0.979-1.247-1.564-2.899-1.564-4.704c0-0.396,0.029-0.784,0.083-1.163  c-0.908-0.171-1.665-0.579-2.281-1.06c0.918,2.346,1.865,4.709,2.836,7.064C51.357,57.277,51.665,57.232,51.982,57.194z"/>
<path fill="none" d="M58.918,79.125c2.431,3.107,10.244,12.04,20.079,17.203c-2.094-1.822-8.289-7.614-9.81-9.463l-0.099-0.128  v-0.161c0-0.117,0.044-0.235,0.136-0.317c0.078-0.089,0.197-0.133,0.313-0.133c0,0,0.968-0.037,1.248-0.236  c0.071-0.009,0.054-0.026,0.062-0.026c-0.008,0-0.025-0.144-0.298-0.407c-1.535-1.463-2.123-2.303-2.141-2.329l-0.432-0.632  l0.771-0.074c0-0.008,0.24-0.025,0.477-0.106c0.262-0.082,0.279-0.125,0.271-0.136c0,0-0.019-0.154-0.325-0.426  c-1.249-1.146-3.186-2.447-4.06-3.948C63.584,78.48,61.567,79.003,58.918,79.125z"/>
<path fill="none" d="M53.301,57.293c0.062,0.059,0.127,0.114,0.191,0.168c0.106-0.174,0.209-0.33,0.299-0.466  c-0.189-0.163-0.29-0.423-0.286-0.684c0.002-0.393,0.172-0.819,0.504-1.335c0.815-1.257,0.959-2.06,0.961-2.469  c-0.002-0.144-0.02-0.239-0.032-0.294c-0.008-0.035-0.01-0.046-0.012-0.05h-0.001v-0.002c0,0,0,0,0.001,0.002l0.628-0.317  c0.023,0.045,0.12,0.265,0.117,0.661c0.003,0.575-0.2,1.512-1.07,2.853c-0.297,0.453-0.396,0.787-0.395,0.951  c0.031,0.192,0.005,0.178,0.296,0.218c0.296,0.004,0.817-0.168,1.361-0.55c1.272-0.886,1.899-1.786,2.217-2.459  c0.318-0.67,0.322-1.074,0.322-1.074h0.002l0.702,0.015c0.004,0.073-0.096,2.193-2.84,4.1c-0.537,0.365-1.056,0.592-1.521,0.654  c-0.325,0.469-1.218,1.819-1.255,2.631l-0.009,0.026c0.009,0.198,0.026,0.181,0.449,0.234c0.325,0,0.677-0.086,0.712-0.061  c0.271-0.283,1.788-1.882,2.15-2.545l0.784,0.44c-0.088,0.156-0.208,0.333-0.349,0.521c3.018-0.243,4.373-2.841,4.406-5.972  c0-1.65-0.547-3.125-1.426-4.211c-1.859,0.402-5.498,0.318-7.24-0.255c-1.009,1.104-1.648,2.682-1.648,4.466  c0,1.897,0.734,3.59,1.871,4.7C53.233,57.219,53.271,57.253,53.301,57.293z"/>
<path fill="none" d="M67.966,67.271c-2.747,0.775-2.078,2.05-4.029,2.212c-0.209,0-0.434-0.018-0.704-0.062  c-0.136-0.029-0.253-0.038-0.37-0.038c-1.475-0.054-1.996,1.835-1.996,1.835c-0.064,0.245-0.31,0.396-0.55,0.335  c-0.245-0.064-0.399-0.309-0.337-0.553c0.016-0.01,0.56-2.457,2.883-2.52c0.16,0,0.335,0.008,0.523,0.045  c0.227,0.036,0.407,0.055,0.551,0.055c0.976,0.161,0.669-1.166,3.768-2.177c0.249-0.078,0.552-0.157,0.896-0.232  c-0.661-2.622-3.805-6.013-9.033-7.455c-0.014-0.004-0.028-0.009-0.042-0.015c-0.764,0.433-1.679,0.684-2.752,0.686  c-0.1,0-0.2-0.002-0.299-0.007c-0.472,0.535-0.957,1.032-1.228,1.287c-0.053,0.424-0.182,1.074-0.182,2.947  c0,1.979,0.284,4.668,0.284,5.234c0,0.564-1.131,0.472-1.604,0.755c-0.471,0.281-2.168,1.508-2.545,0.754  c-0.378-0.754,0.941-1.225,1.698-1.98c0.754-0.754,0.446-2.419,0.235-4.197c-0.201-1.678-0.401-3.213-0.503-3.957  c-0.032-0.104-0.05-0.22-0.05-0.351c0-0.01,0-0.021,0-0.03c-0.008-0.062-0.013-0.094-0.013-0.094s0.006,0.004,0.019,0.011  c0-0.005,0.001-0.006,0.001-0.003c0.049-0.489,0.236-1.008,0.462-1.484c-0.097-0.079-0.193-0.159-0.288-0.244  c-7.697,0.565-10.28,6.223-10.287,6.233l-0.344,0.254c-0.515,0.07-0.994,0.114-1.452,0.114c-3.521-0.008-5.669-1.949-5.705-1.983  l-0.126-0.479c0.171-0.523,0.262-1.064,0.262-1.634c0.018-3.656-3.7-8.161-9.245-9.496c-3.023-0.73-5.965-1.01-8.699-1.01  c-4.908,0-9.124,0.89-11.856,1.659c0.722-0.025,1.533-0.043,2.404-0.043c6.148,0.027,15.417,0.831,19.37,5.993  c0.127,0.172,0.118,0.414-0.025,0.578c-0.153,0.162-0.397,0.198-0.578,0.072c-0.021,0.009-1.193-0.751-3.167-1.499  c-1.979-0.75-4.742-1.499-7.937-1.489c-1.151,0-2.354,0.095-3.595,0.32c2.953,0.322,7.458,1.337,10.601,4.519  c2.725,2.787,5.92,3.364,6.155,3.475c0.009,0,3.637,3.248,6.42,4.44c2.77,1.219,6.614,1.354,6.614,1.346l0.407,0.279  c0.044,0,3.274,7.916,13.766,8.52c0.632,0.037,1.234,0.055,1.812,0.055c8.058-0.039,10.386-3.326,11.053-4.543  c-1.325,0.012-2.465,0.026-3.102,0.119c-0.014,0.004-0.031,0.004-0.049,0.004c-0.229,0-0.431-0.173-0.454-0.399  c-0.029-0.255,0.146-0.478,0.397-0.507c2.148-0.197,10.289-0.019,10.922-0.875c0.182-0.19,0.197-0.288,0.197-0.309  c0.008-0.024-0.117-0.216-0.416-0.36c-0.28-0.136-0.568-0.208-0.568-0.208c-0.217-0.044-0.361-0.244-0.353-0.47  c0.017-0.216,0.182-0.397,0.406-0.416c0.01,0,3.507-0.379,4.696-0.387c0.851,0.008,3.532-0.435,7.208-0.435  c0.714,0,1.474,0.018,2.262,0.063c2.114,0.102,4.458,0.458,6.062,0.687c-6.985-2.975-14.094-3.831-19.485-3.831  C72.348,66.384,69.276,66.863,67.966,67.271z"/>
<polygon points="54.925,52.164 54.926,52.164 54.925,52.162 "/>
<g>
	<path fill="none" d="M47.598,48.667c0.061,0.159,0.124,0.318,0.186,0.478c0.841,0.649,1.909,1.144,2.894,1.31   c0.154-0.588,0.374-1.146,0.649-1.661c-0.891-0.189-2.321-0.549-3.843-1.169C47.573,47.89,47.622,48.223,47.598,48.667z"/>
	<path fill="none" d="M45.563,47.005c-0.137,0-0.264,0.455-0.109,0.838c0.235,0.578,0.636,0.684,0.755,0.671   c0.397-0.04,0.795-0.514,0.54-0.923C46.51,47.208,46.031,47.005,45.563,47.005z"/>
	<path fill="none" d="M51.982,57.194c-0.979-1.247-1.564-2.899-1.564-4.704c0-0.396,0.029-0.784,0.083-1.163   c-0.908-0.171-1.665-0.579-2.281-1.06c0.918,2.346,1.865,4.709,2.836,7.064C51.357,57.277,51.665,57.232,51.982,57.194z"/>
	<circle fill="none" cx="55.409" cy="43.007" r="1.265"/>
	<path fill="none" d="M58.918,79.125c2.431,3.107,10.244,12.04,20.079,17.203c-2.094-1.822-8.289-7.614-9.81-9.463l-0.099-0.128   v-0.161c0-0.117,0.044-0.235,0.136-0.317c0.078-0.089,0.197-0.133,0.313-0.133c0,0,0.968-0.037,1.248-0.236   c0.071-0.009,0.054-0.026,0.062-0.026c-0.008,0-0.025-0.144-0.298-0.407c-1.535-1.463-2.123-2.303-2.141-2.329l-0.432-0.632   l0.771-0.074c0-0.008,0.24-0.025,0.477-0.106c0.262-0.082,0.279-0.125,0.271-0.136c0,0-0.019-0.154-0.325-0.426   c-1.249-1.146-3.186-2.447-4.06-3.948C63.584,78.48,61.567,79.003,58.918,79.125z"/>
	<path fill="none" d="M67.966,67.271c-2.747,0.775-2.078,2.05-4.029,2.212c-0.209,0-0.434-0.018-0.704-0.062   c-0.136-0.029-0.253-0.038-0.37-0.038c-1.475-0.054-1.996,1.835-1.996,1.835c-0.064,0.245-0.31,0.396-0.55,0.335   c-0.245-0.064-0.399-0.309-0.337-0.553c0.016-0.01,0.56-2.457,2.883-2.52c0.16,0,0.335,0.008,0.523,0.045   c0.227,0.036,0.407,0.055,0.551,0.055c0.976,0.161,0.669-1.166,3.768-2.177c0.249-0.078,0.552-0.157,0.896-0.232   c-0.661-2.622-3.805-6.013-9.033-7.455c-0.014-0.004-0.028-0.009-0.042-0.015c-0.764,0.433-1.679,0.684-2.752,0.686   c-0.1,0-0.2-0.002-0.299-0.007c-0.472,0.535-0.957,1.032-1.228,1.287c-0.053,0.424-0.182,1.074-0.182,2.947   c0,1.979,0.284,4.668,0.284,5.234c0,0.564-1.131,0.472-1.604,0.755c-0.471,0.281-2.168,1.508-2.545,0.754   c-0.378-0.754,0.941-1.225,1.698-1.98c0.754-0.754,0.446-2.419,0.235-4.197c-0.201-1.678-0.401-3.213-0.503-3.957   c-0.032-0.104-0.05-0.22-0.05-0.351c0-0.01,0-0.021,0-0.03c-0.008-0.062-0.013-0.094-0.013-0.094s0.006,0.004,0.019,0.011   c0-0.005,0.001-0.006,0.001-0.003c0.049-0.489,0.236-1.008,0.462-1.484c-0.097-0.079-0.193-0.159-0.288-0.244   c-7.697,0.565-10.28,6.223-10.287,6.233l-0.344,0.254c-0.515,0.07-0.994,0.114-1.452,0.114c-3.521-0.008-5.669-1.949-5.705-1.983   l-0.126-0.479c0.171-0.523,0.262-1.064,0.262-1.634c0.018-3.656-3.7-8.161-9.245-9.496c-3.023-0.73-5.965-1.01-8.699-1.01   c-4.908,0-9.124,0.89-11.856,1.659c0.722-0.025,1.533-0.043,2.404-0.043c6.148,0.027,15.417,0.831,19.37,5.993   c0.127,0.172,0.118,0.414-0.025,0.578c-0.153,0.162-0.397,0.198-0.578,0.072c-0.021,0.009-1.193-0.751-3.167-1.499   c-1.979-0.75-4.742-1.499-7.937-1.489c-1.151,0-2.354,0.095-3.595,0.32c2.953,0.322,7.458,1.337,10.601,4.519   c2.725,2.787,5.92,3.364,6.155,3.475c0.009,0,3.637,3.248,6.42,4.44c2.77,1.219,6.614,1.354,6.614,1.346l0.407,0.279   c0.044,0,3.274,7.916,13.766,8.52c0.632,0.037,1.234,0.055,1.812,0.055c8.058-0.039,10.386-3.326,11.053-4.543   c-1.325,0.012-2.465,0.026-3.102,0.119c-0.014,0.004-0.031,0.004-0.049,0.004c-0.229,0-0.431-0.173-0.454-0.399   c-0.029-0.255,0.146-0.478,0.397-0.507c2.148-0.197,10.289-0.019,10.922-0.875c0.182-0.19,0.197-0.288,0.197-0.309   c0.008-0.024-0.117-0.216-0.416-0.36c-0.28-0.136-0.568-0.208-0.568-0.208c-0.217-0.044-0.361-0.244-0.353-0.47   c0.017-0.216,0.182-0.397,0.406-0.416c0.01,0,3.507-0.379,4.696-0.387c0.851,0.008,3.532-0.435,7.208-0.435   c0.714,0,1.474,0.018,2.262,0.063c2.114,0.102,4.458,0.458,6.062,0.687c-6.985-2.975-14.094-3.831-19.485-3.831   C72.348,66.384,69.276,66.863,67.966,67.271z"/>
	<path fill="none" d="M53.301,57.293c0.062,0.059,0.127,0.114,0.191,0.168c0.106-0.174,0.209-0.33,0.299-0.466   c-0.189-0.163-0.29-0.423-0.286-0.684c0.002-0.393,0.172-0.819,0.504-1.335c0.815-1.257,0.959-2.06,0.961-2.469   c-0.002-0.144-0.02-0.239-0.032-0.294c-0.008-0.035-0.01-0.046-0.012-0.05l0.628-0.317c0.023,0.045,0.12,0.265,0.117,0.661   c0.003,0.575-0.2,1.512-1.07,2.853c-0.297,0.453-0.396,0.787-0.395,0.951c0.031,0.192,0.005,0.178,0.296,0.218   c0.296,0.004,0.817-0.168,1.361-0.55c1.272-0.886,1.899-1.786,2.217-2.459c0.318-0.67,0.322-1.074,0.322-1.074h0.002l0.702,0.015   c0.004,0.073-0.096,2.193-2.84,4.1c-0.537,0.365-1.056,0.592-1.521,0.654c-0.325,0.469-1.218,1.819-1.255,2.631l-0.009,0.026   c0.009,0.198,0.026,0.181,0.449,0.234c0.325,0,0.677-0.086,0.712-0.061c0.271-0.283,1.788-1.882,2.15-2.545l0.784,0.44   c-0.088,0.156-0.208,0.333-0.349,0.521c3.018-0.243,4.373-2.841,4.406-5.972c0-1.65-0.547-3.125-1.426-4.211   c-1.859,0.402-5.498,0.318-7.24-0.255c-1.009,1.104-1.648,2.682-1.648,4.466c0,1.897,0.734,3.59,1.871,4.7   C53.233,57.219,53.271,57.253,53.301,57.293z"/>
	<g>
		<path fill="none" d="M45.563,47.005c-0.137,0-0.264,0.455-0.109,0.838c0.235,0.578,0.636,0.684,0.755,0.671    c0.397-0.04,0.795-0.514,0.54-0.923C46.51,47.208,46.031,47.005,45.563,47.005z"/>
		<circle fill="none" cx="55.409" cy="43.007" r="1.265"/>
		<path fill="none" d="M47.598,48.667c0.061,0.159,0.124,0.318,0.186,0.478c0.841,0.649,1.909,1.144,2.894,1.31    c0.154-0.588,0.374-1.146,0.649-1.661c-0.891-0.189-2.321-0.549-3.843-1.169C47.573,47.89,47.622,48.223,47.598,48.667z"/>
		<path fill="none" d="M51.982,57.194c-0.979-1.247-1.564-2.899-1.564-4.704c0-0.396,0.029-0.784,0.083-1.163    c-0.908-0.171-1.665-0.579-2.281-1.06c0.918,2.346,1.865,4.709,2.836,7.064C51.357,57.277,51.665,57.232,51.982,57.194z"/>
		<path fill="none" d="M53.301,57.293c0.062,0.059,0.127,0.114,0.191,0.168c0.106-0.174,0.209-0.33,0.299-0.466    c-0.189-0.163-0.29-0.423-0.286-0.684c0.002-0.393,0.172-0.819,0.504-1.335c0.815-1.257,0.959-2.06,0.961-2.469    c-0.002-0.144-0.02-0.239-0.032-0.294c-0.008-0.035-0.01-0.046-0.012-0.05l0.628-0.317c0.023,0.045,0.12,0.265,0.117,0.661    c0.003,0.575-0.2,1.512-1.07,2.853c-0.297,0.453-0.396,0.787-0.395,0.951c0.031,0.192,0.005,0.178,0.296,0.218    c0.296,0.004,0.817-0.168,1.361-0.55c1.272-0.886,1.899-1.786,2.217-2.459c0.318-0.67,0.322-1.074,0.322-1.074h0.002l0.702,0.015    c0.004,0.073-0.096,2.193-2.84,4.1c-0.537,0.365-1.056,0.592-1.521,0.654c-0.325,0.469-1.218,1.819-1.255,2.631l-0.009,0.026    c0.009,0.198,0.026,0.181,0.449,0.234c0.325,0,0.677-0.086,0.712-0.061c0.271-0.283,1.788-1.882,2.15-2.545l0.784,0.44    c-0.088,0.156-0.208,0.333-0.349,0.521c3.018-0.243,4.373-2.841,4.406-5.972c0-1.65-0.547-3.125-1.426-4.211    c-1.859,0.402-5.498,0.318-7.24-0.255c-1.009,1.104-1.648,2.682-1.648,4.466c0,1.897,0.734,3.59,1.871,4.7    C53.233,57.219,53.271,57.253,53.301,57.293z"/>
		<path fill="none" d="M67.966,67.271c-2.747,0.775-2.078,2.05-4.029,2.212c-0.209,0-0.434-0.018-0.704-0.062    c-0.136-0.029-0.253-0.038-0.37-0.038c-1.475-0.054-1.996,1.835-1.996,1.835c-0.064,0.245-0.31,0.396-0.55,0.335    c-0.245-0.064-0.399-0.309-0.337-0.553c0.016-0.01,0.56-2.457,2.883-2.52c0.16,0,0.335,0.008,0.523,0.045    c0.227,0.036,0.407,0.055,0.551,0.055c0.976,0.161,0.669-1.166,3.768-2.177c0.249-0.078,0.552-0.157,0.896-0.232    c-0.661-2.622-3.805-6.013-9.033-7.455c-0.014-0.004-0.028-0.009-0.042-0.015c-0.764,0.433-1.679,0.684-2.752,0.686    c-0.1,0-0.2-0.002-0.299-0.007c-0.472,0.535-0.957,1.032-1.228,1.287c-0.053,0.424-0.182,1.074-0.182,2.947    c0,1.979,0.284,4.668,0.284,5.234c0,0.564-1.131,0.472-1.604,0.755c-0.471,0.281-2.168,1.508-2.545,0.754    c-0.378-0.754,0.941-1.225,1.698-1.98c0.754-0.754,0.446-2.419,0.235-4.197c-0.201-1.678-0.401-3.213-0.503-3.957    c-0.032-0.104-0.05-0.22-0.05-0.351c0-0.01,0-0.021,0-0.03c-0.008-0.062-0.013-0.094-0.013-0.094s0.006,0.004,0.019,0.011    c0-0.005,0.001-0.006,0.001-0.003c0.049-0.489,0.236-1.008,0.462-1.484c-0.097-0.079-0.193-0.159-0.288-0.244    c-7.697,0.565-10.28,6.223-10.287,6.233l-0.344,0.254c-0.515,0.07-0.994,0.114-1.452,0.114c-3.521-0.008-5.669-1.949-5.705-1.983    l-0.126-0.479c0.171-0.523,0.262-1.064,0.262-1.634c0.018-3.656-3.7-8.161-9.245-9.496c-3.023-0.73-5.965-1.01-8.699-1.01    c-4.908,0-9.124,0.89-11.856,1.659c0.722-0.025,1.533-0.043,2.404-0.043c6.148,0.027,15.417,0.831,19.37,5.993    c0.127,0.172,0.118,0.414-0.025,0.578c-0.153,0.162-0.397,0.198-0.578,0.072c-0.021,0.009-1.193-0.751-3.167-1.499    c-1.979-0.75-4.742-1.499-7.937-1.489c-1.151,0-2.354,0.095-3.595,0.32c2.953,0.322,7.458,1.337,10.601,4.519    c2.725,2.787,5.92,3.364,6.155,3.475c0.009,0,3.637,3.248,6.42,4.44c2.77,1.219,6.614,1.354,6.614,1.346l0.407,0.279    c0.044,0,3.274,7.916,13.766,8.52c0.632,0.037,1.234,0.055,1.812,0.055c8.058-0.039,10.386-3.326,11.053-4.543    c-1.325,0.012-2.465,0.026-3.102,0.119c-0.014,0.004-0.031,0.004-0.049,0.004c-0.229,0-0.431-0.173-0.454-0.399    c-0.029-0.255,0.146-0.478,0.397-0.507c2.148-0.197,10.289-0.019,10.922-0.875c0.182-0.19,0.197-0.288,0.197-0.309    c0.008-0.024-0.117-0.216-0.416-0.36c-0.28-0.136-0.568-0.208-0.568-0.208c-0.217-0.044-0.361-0.244-0.353-0.47    c0.017-0.216,0.182-0.397,0.406-0.416c0.01,0,3.507-0.379,4.696-0.387c0.851,0.008,3.532-0.435,7.208-0.435    c0.714,0,1.474,0.018,2.262,0.063c2.114,0.102,4.458,0.458,6.062,0.687c-6.985-2.975-14.094-3.831-19.485-3.831    C72.348,66.384,69.276,66.863,67.966,67.271z"/>
		<path fill="none" d="M58.918,79.125c2.431,3.107,10.244,12.04,20.079,17.203c-2.094-1.822-8.289-7.614-9.81-9.463l-0.099-0.128    v-0.161c0-0.117,0.044-0.235,0.136-0.317c0.078-0.089,0.197-0.133,0.313-0.133c0,0,0.968-0.037,1.248-0.236    c0.071-0.009,0.054-0.026,0.062-0.026c-0.008,0-0.025-0.144-0.298-0.407c-1.535-1.463-2.123-2.303-2.141-2.329l-0.432-0.632    l0.771-0.074c0-0.008,0.24-0.025,0.477-0.106c0.262-0.082,0.279-0.125,0.271-0.136c0,0-0.019-0.154-0.325-0.426    c-1.249-1.146-3.186-2.447-4.06-3.948C63.584,78.48,61.567,79.003,58.918,79.125z"/>
	</g>
</g>
<path d="M96.304,69.438c-7.173-3.08-14.444-3.956-19.971-3.956c-2.826,0-5.181,0.226-6.847,0.516  c-0.738-2.956-3.912-6.335-9.041-7.968c1.423-1.307,2.096-3.398,2.096-5.539c0-1.717-0.534-3.302-1.432-4.529  c0.217-0.138,0.302-0.303,0.207-0.492c-1.274-2.582-0.497-6.225-3.582-7.168c-2.264-0.69-3.441,0.508-4.382,1.639  c-0.944,1.132-4.435,1.415-4.435,1.415c0.007,1.039,4.224,1.541,4.224,1.541s0.121,0.566-1.011,2.013  c-0.2,0.256-0.177,0.482,0.013,0.678c-0.114,0.135-0.224,0.276-0.328,0.422c-0.931-0.131-2.843-0.501-5.044-1.495  c-4.896-12.836-9.888-28.04-12.563-36.399c2.288-1.157,3.667-1.853,7.415-2.221c0.564-0.058,1.106-0.081,1.622-0.081  c2.993,0,5.163,0.846,6.584,1.683c0.711,0.42,1.235,0.839,1.581,1.151c0.343,0.312,0.496,0.502,0.496,0.502  c0.069,0.084,0.172,0.13,0.275,0.13c0.059,0,0.118-0.016,0.175-0.046c0.148-0.085,0.215-0.267,0.154-0.429  c-0.014-0.066-2.154-5.706-10.988-7.012C40.624,3.658,39.782,3.603,39,3.603c-3.416,0-5.68,1.068-6.393,1.459  c-0.25-0.8-0.386-1.239-0.387-1.244l-0.873,0.26c0,0.007,6.945,23.648,13.928,42.302c-0.459,0.194-0.837,1.491,0.179,2.337  c0.205,0.17,0.564,0.299,0.834,0.327c1.087,2.848,2.225,5.728,3.404,8.592c-5.13,1.411-7.413,5.062-7.927,6.015  c-0.384,0.046-0.742,0.066-1.086,0.066c-1.58,0-2.853-0.434-3.728-0.876c-0.537-0.271-0.929-0.538-1.153-0.702  c0.145-0.524,0.212-1.061,0.212-1.608c-0.026-4.233-4.051-8.937-9.928-10.371c-3.106-0.758-6.129-1.039-8.917-1.039  c-8.83,0-15.481,2.825-15.516,2.835c-0.209,0.089-0.319,0.315-0.264,0.532c0.055,0.216,0.273,0.36,0.488,0.334  c0.009,0,2.429-0.28,5.84-0.28c5.093-0.016,12.328,0.664,16.577,3.655c-2.075-0.855-5.212-1.81-8.914-1.814  c-2.092,0-4.366,0.308-6.716,1.11c-0.216,0.082-0.342,0.299-0.297,0.523c0.048,0.217,0.246,0.37,0.471,0.361  c0,0,0.124-0.009,0.386-0.009c1.725-0.009,8.532,0.306,12.513,4.403c2.885,2.935,6.246,3.58,6.41,3.611  c-0.069,0.023,3.489,3.211,6.442,4.494c2.545,1.108,5.734,1.356,6.684,1.412c0.698,1.435,4.547,8.233,14.428,8.808  c0.643,0.035,1.263,0.054,1.858,0.054h0.157c0.03,0,0.06,0,0.089,0c2.014,2.687,10.856,13.262,22.228,18.711  c0.833,0.378,1.167,0.541,1.537,0.566c0.125,0,0.514-0.188,0.514-0.495c-0.169-0.651-0.449-0.605-0.839-1.002  c-0.379-0.299-0.822-0.632-1.12-0.85c-0.785-0.567-7.313-6.61-9.662-9.144c0.017-0.006,0.038-0.008,0.055-0.013  c0.443-0.108,1.156-0.252,1.239-1.064c-0.009-0.389-0.229-0.713-0.578-1.058c-0.758-0.724-1.264-1.278-1.576-1.649  c0.342-0.13,0.692-0.397,0.798-0.978c-0.008-0.406-0.232-0.741-0.612-1.092c-1.297-1.166-3.163-2.506-3.864-3.678  c2.744-1.479,3.576-3.403,3.706-3.707c0.001-0.001,0.001-0.003,0.001-0.004c2.922-0.031,6.318-0.133,7.337-1.008  c0.278-0.289,0.458-0.605,0.458-0.95c-0.04-0.29-0.153-0.522-0.299-0.702c1.106-0.107,2.548-0.233,3.163-0.228  c1.031-0.009,3.569-0.442,7.208-0.442c0.696,0,1.438,0.02,2.214,0.062c3.135,0.146,6.697,0.877,7.851,0.886  c0.117,0,0.219-0.009,0.337-0.036c0.068-0.019,0.386-0.1,0.415-0.497C98.001,69.936,97.568,70.107,96.304,69.438z M39.382,4.311  c0.639,0.015,1.318,0.069,2.039,0.178c4.272,0.635,6.873,2.295,8.416,3.782c0.34,0.328,0.629,0.647,0.872,0.947  c-1.488-0.989-3.947-2.107-7.464-2.107c-0.54-0.003-1.104,0.025-1.689,0.082c-0.863,0.082-1.611,0.186-2.278,0.31L39.382,4.311z   M35.515,4.719c0.872-0.215,1.935-0.384,3.164-0.41l-0.111,3.337c-1.212,0.275-2.159,0.631-3.104,1.065L35.515,4.719z M33.554,7.996  c-0.275-1.177-0.482-1.954-0.586-2.331c0.253-0.139,0.724-0.37,1.404-0.608c0.138-0.048,0.284-0.096,0.438-0.144L34.755,9.05  c-0.249,0.123-0.502,0.25-0.765,0.384c-0.131-0.411-0.255-0.802-0.374-1.174C33.597,8.176,33.576,8.088,33.554,7.996z   M55.409,41.742c0.698,0,1.265,0.566,1.265,1.264c0,0.698-0.566,1.266-1.265,1.266s-1.266-0.567-1.266-1.266  C54.144,42.308,54.711,41.742,55.409,41.742z M52.969,48.024c1.742,0.574,5.381,0.657,7.24,0.255  c0.879,1.086,1.426,2.561,1.426,4.211c-0.033,3.131-1.389,5.729-4.406,5.972c0.141-0.188,0.261-0.364,0.349-0.521l-0.784-0.44  c-0.362,0.663-1.879,2.262-2.15,2.545c-0.035-0.025-0.387,0.061-0.712,0.061c-0.423-0.054-0.44-0.036-0.449-0.234l0.009-0.026  c0.037-0.812,0.93-2.162,1.255-2.631c0.466-0.062,0.984-0.289,1.521-0.654c2.744-1.906,2.844-4.026,2.84-4.1l-0.702-0.015h-0.002  c0,0-0.004,0.404-0.322,1.074c-0.317,0.673-0.944,1.573-2.217,2.459c-0.544,0.382-1.065,0.554-1.361,0.55  c-0.291-0.04-0.265-0.025-0.296-0.218c-0.002-0.164,0.098-0.498,0.395-0.951c0.87-1.341,1.073-2.277,1.07-2.853  c0.003-0.396-0.094-0.616-0.117-0.661l-0.628,0.317c0.002,0.004,0.004,0.015,0.012,0.05c0.013,0.055,0.03,0.15,0.032,0.294  c-0.002,0.409-0.146,1.212-0.961,2.469c-0.332,0.516-0.502,0.942-0.504,1.335c-0.004,0.261,0.097,0.521,0.286,0.684  c-0.09,0.136-0.192,0.292-0.299,0.466c-0.064-0.054-0.129-0.109-0.191-0.168c-0.03-0.04-0.067-0.074-0.109-0.103  c-1.137-1.11-1.871-2.803-1.871-4.7C51.32,50.706,51.96,49.128,52.969,48.024z M46.209,48.514c-0.119,0.012-0.52-0.094-0.755-0.671  c-0.155-0.383-0.028-0.838,0.109-0.838c0.468,0,0.947,0.203,1.187,0.586C47.005,48,46.606,48.475,46.209,48.514z M47.598,48.667  c0.023-0.445-0.025-0.778-0.114-1.042c1.522,0.62,2.952,0.98,3.843,1.169c-0.275,0.514-0.495,1.072-0.649,1.661  c-0.985-0.167-2.053-0.661-2.894-1.31C47.722,48.985,47.659,48.827,47.598,48.667z M48.221,50.267  c0.616,0.481,1.373,0.889,2.281,1.06c-0.055,0.379-0.083,0.768-0.083,1.163c0,1.805,0.585,3.457,1.564,4.704  c-0.317,0.038-0.625,0.083-0.925,0.137C50.086,54.977,49.139,52.613,48.221,50.267z M69.171,81.753  c0.307,0.271,0.325,0.426,0.325,0.426c0.008,0.011-0.01,0.054-0.271,0.136c-0.236,0.081-0.477,0.099-0.477,0.106l-0.771,0.074  l0.432,0.632c0.018,0.026,0.605,0.866,2.141,2.329c0.272,0.264,0.29,0.407,0.298,0.407c-0.008,0,0.01,0.018-0.062,0.026  c-0.28,0.199-1.248,0.236-1.248,0.236c-0.116,0-0.235,0.044-0.313,0.133c-0.092,0.082-0.136,0.2-0.136,0.317v0.161l0.099,0.128  c1.521,1.849,7.716,7.641,9.81,9.463c-9.835-5.163-17.648-14.096-20.079-17.203c2.649-0.122,4.666-0.645,6.193-1.32  C65.985,79.306,67.922,80.607,69.171,81.753z M89.756,69.528c-0.788-0.046-1.548-0.063-2.262-0.063  c-3.676,0-6.357,0.442-7.208,0.435c-1.189,0.008-4.687,0.387-4.696,0.387c-0.225,0.019-0.39,0.2-0.406,0.416  c-0.009,0.226,0.136,0.426,0.353,0.47c0,0,0.288,0.072,0.568,0.208c0.299,0.145,0.424,0.336,0.416,0.36  c0,0.021-0.016,0.118-0.197,0.309c-0.633,0.856-8.773,0.678-10.922,0.875c-0.252,0.029-0.427,0.252-0.397,0.507  c0.023,0.227,0.225,0.399,0.454,0.399c0.018,0,0.035,0,0.049-0.004c0.637-0.093,1.776-0.107,3.102-0.119  c-0.667,1.217-2.995,4.504-11.053,4.543c-0.577,0-1.18-0.018-1.812-0.055c-10.492-0.604-13.721-8.52-13.766-8.52l-0.407-0.279  c0,0.008-3.845-0.127-6.614-1.346c-2.783-1.192-6.411-4.44-6.42-4.44c-0.235-0.11-3.431-0.688-6.155-3.475  c-3.144-3.182-7.648-4.196-10.601-4.519c1.241-0.226,2.444-0.32,3.595-0.32c3.195-0.01,5.958,0.739,7.937,1.489  c1.974,0.748,3.147,1.508,3.167,1.499c0.18,0.126,0.424,0.09,0.578-0.072c0.144-0.164,0.152-0.406,0.025-0.578  c-3.954-5.162-13.222-5.966-19.37-5.993c-0.872,0-1.682,0.018-2.404,0.043c2.732-0.769,6.948-1.659,11.856-1.659  c2.734,0,5.675,0.28,8.699,1.01c5.545,1.335,9.263,5.84,9.245,9.496c0,0.569-0.091,1.11-0.262,1.634l0.126,0.479  c0.036,0.034,2.184,1.976,5.705,1.983c0.458,0,0.938-0.044,1.452-0.114l0.344-0.254c0.007-0.011,2.59-5.668,10.287-6.233  c0.095,0.085,0.191,0.165,0.288,0.244c-0.226,0.477-0.413,0.995-0.462,1.484c0-0.003-0.001-0.002-0.001,0.003  c-0.013-0.007-0.019-0.011-0.019-0.011s0.005,0.032,0.013,0.094c0,0.01,0,0.021,0,0.03c0,0.131,0.018,0.246,0.05,0.351  c0.102,0.744,0.302,2.279,0.503,3.957c0.211,1.778,0.519,3.443-0.235,4.197c-0.757,0.756-2.076,1.227-1.698,1.98  c0.377,0.754,2.074-0.473,2.545-0.754c0.473-0.283,1.604-0.19,1.604-0.755c0-0.566-0.284-3.255-0.284-5.234  c0-1.873,0.129-2.523,0.182-2.947c0.271-0.255,0.756-0.752,1.228-1.287c0.099,0.005,0.199,0.007,0.299,0.007  c1.073-0.002,1.988-0.253,2.752-0.686c0.014,0.006,0.028,0.011,0.042,0.015c5.229,1.442,8.372,4.833,9.033,7.455  c-0.344,0.075-0.646,0.154-0.896,0.232c-3.099,1.011-2.792,2.338-3.768,2.177c-0.144,0-0.324-0.019-0.551-0.055  c-0.188-0.037-0.363-0.045-0.523-0.045c-2.323,0.062-2.867,2.51-2.883,2.52c-0.062,0.244,0.092,0.488,0.337,0.553  c0.24,0.062,0.485-0.09,0.55-0.335c0,0,0.521-1.889,1.996-1.835c0.117,0,0.234,0.009,0.37,0.038  c0.271,0.044,0.495,0.062,0.704,0.062c1.951-0.162,1.282-1.437,4.029-2.212c1.311-0.407,4.382-0.887,8.367-0.887  c5.392,0,12.5,0.856,19.485,3.831C94.214,69.986,91.87,69.63,89.756,69.528z"/>
</svg>